<?xml version="1.0" standalone="no"?>
<!DOCTYPE svg PUBLIC "-//W3C//DTD SVG 20010904//EN"
 "http://www.w3.org/TR/2001/REC-SVG-20010904/DTD/svg10.dtd">
<svg version="1.0" xmlns="http://www.w3.org/2000/svg"
 width="1024.000000pt" height="1024.000000pt" viewBox="0 0 1024.000000 1024.000000"
 preserveAspectRatio="xMidYMid meet">

<g transform="translate(0.000000,1024.000000) scale(0.100000,-0.100000)"
fill="#000000" stroke="none">
<path d="M4857 8875 c-159 -19 -293 -50 -462 -107 -643 -213 -1196 -702 -1500
-1323 -275 -564 -285 -1129 -30 -1815 135 -362 318 -729 721 -1440 48 -85 98
-175 111 -199 108 -200 415 -672 604 -931 228 -312 555 -706 802 -965 94 -98
107 -108 119 -93 446 550 722 936 1010 1408 272 446 790 1415 968 1810 430
955 470 1599 139 2260 -388 773 -1155 1317 -1978 1400 -136 13 -369 11 -504
-5z m565 -804 c417 -85 775 -326 1013 -682 328 -494 345 -1148 42 -1661 -229
-388 -599 -652 -1052 -750 -136 -30 -466 -32 -592 -5 -334 72 -568 194 -809
420 -189 178 -353 451 -423 707 -41 147 -54 249 -55 425 -1 267 43 454 164
700 234 473 680 791 1210 865 105 14 390 4 502 -19z"/>
<path d="M5345 1140 c3 -5 8 -10 11 -10 2 0 4 5 4 10 0 6 -5 10 -11 10 -5 0
-7 -4 -4 -10z"/>
<path d="M5485 1100 c-3 -5 -1 -10 4 -10 6 0 11 5 11 10 0 6 -2 10 -4 10 -3 0
-8 -4 -11 -10z"/>
<path d="M5231 1028 c-1 -16 4 -28 9 -28 12 0 12 8 0 35 -8 18 -9 17 -9 -7z"/>
<path d="M5318 1033 c7 -3 16 -2 19 1 4 3 -2 6 -13 5 -11 0 -14 -3 -6 -6z"/>
</g>
</svg>
